<svg width="30" height="26" viewBox="0 0 30 26" fill="none" xmlns="http://www.w3.org/2000/svg">
<path d="M28.75 11.7002H3.81312L13.3619 2.24149C13.8619 1.7462 13.8812 0.923306 13.405 0.403312C12.9294 -0.116032 12.1381 -0.136832 11.6375 0.358462L0.7325 11.1613C0.260625 11.6527 0 12.3053 0 13.0002C0 13.6943 0.260625 14.3476 0.754375 14.8604L11.6381 25.6412C11.88 25.8811 12.19 26 12.5 26C12.83 26 13.16 25.8648 13.4056 25.5964C13.8819 25.0764 13.8625 24.2541 13.3625 23.7588L3.77375 14.3001H28.75C29.44 14.3001 30 13.7177 30 13.0002C30 12.2826 29.44 11.7002 28.75 11.7002V11.7002Z" fill="white"/>
</svg>
