<svg width="72" height="72" viewBox="0 0 72 72" fill="none" xmlns="http://www.w3.org/2000/svg">
<g clip-path="url(#clip0)">
<path d="M2.35127 10.6621L15.498 7.64178C16.9265 7.31458 18.3928 8.05708 18.9743 9.39105L25.042 23.4859C25.573 24.7192 25.219 26.1665 24.1698 27.0097L16.5093 33.2517C21.0601 42.9041 29.0113 50.9332 38.9093 55.5518L45.1793 47.9254C46.0389 46.8809 47.48 46.5285 48.7188 47.0571L62.8768 53.0978C64.2294 53.6892 64.9753 55.1491 64.6466 56.5711L61.6127 69.6592C61.2967 71.0184 60.0832 72 58.6547 72C26.2809 72 2.34208e-05 45.8867 2.34208e-05 13.6069C2.34208e-05 12.1974 0.973392 10.9767 2.35127 10.6621Z" fill="#4B657F"/>
<path d="M65.0079 38.6724C65.6327 22.3479 53.4852 7.84384 37.2496 5.51484C36.6391 5.42725 36.0966 5.86576 36.0516 6.47765L35.8125 9.73075C35.7691 10.3145 36.1979 10.8402 36.7801 10.9263C50.0909 12.9003 60.0257 24.7644 59.5771 38.1574C59.5572 38.7431 59.9999 39.2572 60.5839 39.3205L63.8412 39.6726C64.4534 39.7382 64.9844 39.286 65.0079 38.6724ZM54.2185 37.6111C54.3843 27.1907 46.668 17.985 36.3538 16.2715C35.7358 16.1687 35.1811 16.6093 35.1373 17.23L34.906 20.4945C34.8658 21.0631 35.2709 21.5888 35.8366 21.6895C43.2713 23.0104 48.807 29.6396 48.7717 37.1406C48.7693 37.7127 49.2151 38.2046 49.7847 38.2673L53.0518 38.629C53.6734 38.6985 54.2088 38.2338 54.2185 37.6111Z" fill="#4B657F"/>
</g>
<defs>
<clipPath id="clip0">
<rect width="71.5561" height="72" fill="white" transform="matrix(-1 0 0 1 71.5561 0)"/>
</clipPath>
</defs>
</svg>
