<svg width="95" height="44" viewBox="0 0 95 44" fill="none" xmlns="http://www.w3.org/2000/svg">
<path d="M8.78197 44C7.79437 44 7.40455 42.7206 8.22435 42.1699L70.0816 0.616973C70.5731 0.286782 71.2423 0.453645 71.5213 0.975958L93.7143 42.5289C94.0701 43.195 93.5874 44 92.8322 44H8.78197Z" fill="url(#paint0_linear)" fill-opacity="0.62"/>
<path d="M17.5394 -2.20154e-05L44.2531 0.395142L43.7138 36.8562L17 36.461L17.5394 -2.20154e-05Z" fill="white"/>
<path d="M26.3999 5.95835C26.436 3.51803 28.4268 1.56771 30.8472 1.60351C33.2676 1.63932 35.1999 3.64655 35.1638 6.08799C35.152 6.99511 34.8616 7.87663 34.3321 8.61288C33.8027 9.34914 33.0597 9.90448 32.2041 10.2035L32.2209 9.06559C32.2271 8.67059 32.0768 8.28921 31.8029 8.00479C31.529 7.72037 31.1539 7.55603 30.7593 7.54768C30.3647 7.54435 29.9848 7.69752 29.7026 7.97372C29.4205 8.24992 29.259 8.62668 29.2534 9.0217L29.2366 10.1602C28.3901 9.83593 27.6638 9.25877 27.1564 8.50707C26.6489 7.75536 26.3848 6.86552 26.3999 5.95835V5.95835Z" fill="#E5F3FF"/>
<path d="M30.7626 7.11401C29.8324 7.10025 29.0895 6.32865 29.1034 5.3906C29.1172 4.45255 29.8826 3.70327 30.8129 3.71703C31.7431 3.73079 32.486 4.50238 32.4721 5.44043C32.4582 6.37849 31.6929 7.12777 30.7626 7.11401Z" fill="white" stroke="white" stroke-miterlimit="10"/>
<path d="M30.7589 7.54775C31.1534 7.5561 31.5286 7.72044 31.8025 8.00487C32.0764 8.28929 32.2267 8.67067 32.2205 9.06567L32.2037 10.2042C31.2397 10.5366 30.1899 10.5211 29.2362 10.1603L29.253 9.02178C29.2586 8.62676 29.42 8.24999 29.7022 7.9738C29.9844 7.6976 30.3643 7.54443 30.7589 7.54775V7.54775Z" fill="white" stroke="white" stroke-miterlimit="10"/>
<path d="M32.4883 5.34673C32.6275 5.08464 32.6938 4.78994 32.6804 4.49343C32.6656 4.19613 32.5358 3.91626 32.3185 3.71307C32.0763 3.49852 31.7449 3.4192 31.424 3.38871C31.103 3.35822 30.777 3.36907 30.4616 3.30117C30.2005 3.24354 29.9535 3.13441 29.7351 2.98014C29.5166 2.82587 29.331 2.62957 29.1892 2.4027C29.1654 2.65136 29.1415 2.90561 29.1854 3.15023C29.2293 3.39486 29.3509 3.63951 29.5603 3.77131C29.3061 3.64836 29.3299 3.9285 29.3827 4.09659C29.2536 4.24912 28.9453 4.2703 28.9267 4.4698C28.9081 4.66929 28.9078 4.87577 28.9822 5.06097C29.0566 5.24617 28.9691 5.56998 29.1667 5.5869" fill="white"/>
<path d="M32.4883 5.34673C32.6275 5.08464 32.6938 4.78994 32.6804 4.49343C32.6656 4.19613 32.5358 3.91626 32.3185 3.71307C32.0763 3.49852 31.7449 3.4192 31.424 3.38871C31.103 3.35822 30.777 3.36907 30.4616 3.30117C30.2005 3.24354 29.9535 3.13441 29.7351 2.98014C29.5166 2.82587 29.331 2.62957 29.1892 2.4027C29.1654 2.65136 29.1415 2.90561 29.1854 3.15023C29.2293 3.39486 29.3509 3.63951 29.5603 3.77131C29.3061 3.64836 29.3299 3.9285 29.3827 4.09659C29.2536 4.24912 28.9453 4.2703 28.9267 4.4698C28.9081 4.66929 28.9078 4.87577 28.9822 5.06097C29.0566 5.24617 28.9691 5.56998 29.1667 5.5869" stroke="white" stroke-miterlimit="10"/>
<mask id="path-8-inside-1" fill="white">
<path d="M36.237 13.9992L38.5961 14.0341L38.5612 16.3957L36.2021 16.3608L36.237 13.9992Z"/>
</mask>
<path d="M38.5961 14.0341L38.6701 9.0346L43.6696 9.10856L43.5956 14.108L38.5961 14.0341ZM36.237 13.9992L31.2376 13.9252L31.3116 8.92575L36.311 8.99971L36.237 13.9992ZM36.2021 16.3608L36.1282 21.3602L31.1287 21.2863L31.2027 16.2868L36.2021 16.3608ZM38.5612 16.3957L43.5607 16.4696L43.4867 21.4691L38.4873 21.3951L38.5612 16.3957ZM38.5222 19.0335L36.1631 18.9986L36.311 8.99971L38.6701 9.0346L38.5222 19.0335ZM41.2365 14.0731L41.2016 16.4347L31.2027 16.2868L31.2376 13.9252L41.2365 14.0731ZM36.2761 11.3613L38.6352 11.3962L38.4873 21.3951L36.1282 21.3602L36.2761 11.3613ZM33.5618 16.3217L33.5967 13.9601L43.5956 14.108L43.5607 16.4696L33.5618 16.3217Z" fill="#E5E5E5" mask="url(#path-8-inside-1)"/>
<mask id="path-10-inside-2" fill="white">
<path d="M36.12 21.9107L38.4791 21.9456L38.4441 24.3072L36.085 24.2723L36.12 21.9107Z"/>
</mask>
<path d="M38.4791 21.9456L38.553 16.9461L43.5525 17.0201L43.4785 22.0195L38.4791 21.9456ZM36.12 21.9107L31.1205 21.8367L31.1945 16.8373L36.1939 16.9112L36.12 21.9107ZM36.085 24.2723L36.0111 29.2717L31.0116 29.1978L31.0856 24.1983L36.085 24.2723ZM38.4441 24.3072L43.4436 24.3811L43.3696 29.3806L38.3702 29.3066L38.4441 24.3072ZM38.4051 26.945L36.046 26.9101L36.1939 16.9112L38.553 16.9461L38.4051 26.945ZM41.1194 21.9846L41.0845 24.3462L31.0856 24.1983L31.1205 21.8367L41.1194 21.9846ZM36.159 19.2728L38.5181 19.3077L38.3702 29.3066L36.0111 29.2717L36.159 19.2728ZM33.4447 24.2332L33.4796 21.8716L43.4785 22.0195L43.4436 24.3811L33.4447 24.2332Z" fill="#E5E5E5" mask="url(#path-10-inside-2)"/>
<mask id="path-12-inside-3" fill="white">
<path d="M36.0047 29.704L38.3638 29.7389L38.3288 32.1005L35.9697 32.0656L36.0047 29.704Z"/>
</mask>
<path d="M38.3638 29.7389L38.4377 24.7394L43.4372 24.8134L43.3632 29.8128L38.3638 29.7389ZM36.0047 29.704L31.0052 29.63L31.0792 24.6306L36.0786 24.7045L36.0047 29.704ZM35.9697 32.0656L35.8958 37.0651L30.8963 36.9911L30.9703 31.9917L35.9697 32.0656ZM38.3288 32.1005L43.3283 32.1745L43.2543 37.1739L38.2549 37.1L38.3288 32.1005ZM38.2898 34.7383L35.9307 34.7034L36.0786 24.7045L38.4377 24.7394L38.2898 34.7383ZM41.0041 29.7779L40.9692 32.1396L30.9703 31.9917L31.0052 29.63L41.0041 29.7779ZM36.0437 27.0662L38.4028 27.1011L38.2549 37.1L35.8958 37.0651L36.0437 27.0662ZM33.3294 32.0266L33.3643 29.6649L43.3632 29.8128L43.3283 32.1745L33.3294 32.0266Z" fill="#E5E5E5" mask="url(#path-12-inside-3)"/>
<path d="M20.2644 14.6155L35.0287 14.8339L35.0194 15.4649L20.255 15.2465L20.2644 14.6155Z" fill="#E5E5E5"/>
<path d="M20.2513 15.4983L35.0156 15.7167L35.0063 16.3477L20.2419 16.1293L20.2513 15.4983Z" fill="#E5E5E5"/>
<path d="M20.1477 22.5003L34.9121 22.7188L34.9027 23.3498L20.1384 23.1314L20.1477 22.5003Z" fill="#E5E5E5"/>
<path d="M20.1346 23.3836L34.899 23.6021L34.8897 24.2331L20.1253 24.0147L20.1346 23.3836Z" fill="#E5E5E5"/>
<path d="M26.0501 29.5913L34.8085 29.7208L34.7991 30.3519L26.0408 30.2223L26.0501 29.5913Z" fill="#E5F3FF"/>
<path d="M20.0311 30.3858L34.7954 30.6042L34.7861 31.2353L20.0217 31.0169L20.0311 30.3858Z" fill="#E5E5E5"/>
<path d="M20.018 31.2691L34.7824 31.4875L34.773 32.1186L20.0087 31.9002L20.018 31.2691Z" fill="#E5E5E5"/>
<g filter="url(#filter0_d)">
<path d="M15.9688 27.1641V24.8945H9.73438C9.55208 24.8581 9.45182 24.7578 9.43359 24.5938V21.832H16.2969V16.6094C16.2969 15.0964 15.8594 14.1393 14.9844 13.7383C14.4557 13.5013 13.7357 13.3828 12.8242 13.3828H10.1445C8.57682 13.3828 7.57422 13.7656 7.13672 14.5312C6.86328 15.0234 6.72656 15.7161 6.72656 16.6094V23.8008C6.72656 25.4596 7.32812 26.4896 8.53125 26.8906C9.0599 27.0729 9.71615 27.1641 10.5 27.1641H15.9688ZM9.43359 15.8711C9.47005 15.6888 9.57031 15.5885 9.73438 15.5703H13.3438C13.526 15.6068 13.6263 15.707 13.6445 15.8711V19.8906H9.43359V15.8711ZM51.1328 25.0312H47.2227C47.0404 24.9948 46.9401 24.8945 46.9219 24.7305V21.3672C46.9583 21.2031 47.0586 21.112 47.2227 21.0938H51.1328V25.0312ZM48.8086 27.2188C50.1576 27.2005 50.9596 26.6263 51.2148 25.4961L51.4336 27H53.8672V16.8555C53.8672 15.2148 53.3112 14.2031 52.1992 13.8203C51.6888 13.6562 51.0508 13.5742 50.2852 13.5742H45.0898V15.8438H50.832C51.0143 15.8802 51.1146 15.9714 51.1328 16.1172V19.125H47.7422C46.1016 19.125 45.0625 19.5443 44.625 20.3828C44.388 20.8568 44.2695 21.4857 44.2695 22.2695V24.2109C44.2695 25.724 44.7982 26.6536 45.8555 27C46.293 27.1458 46.8216 27.2188 47.4414 27.2188H48.8086ZM63.1367 13.6016H59.9922V10.1836H57.3125V13.6016H55.7539V15.707H57.3125V23.6367C57.3125 25.2956 57.9141 26.3255 59.1172 26.7266C59.6458 26.9089 60.3021 27 61.0859 27H63.1367V24.7305H60.293C60.1107 24.694 60.0104 24.5938 59.9922 24.4297V15.707H63.1367V13.6016Z" fill="white"/>
<path d="M28.8203 24.4844H22.1484C21.9661 24.4479 21.8659 24.3477 21.8477 24.1836V12.4531C21.8841 12.2708 21.9844 12.1706 22.1484 12.1523H28.8203V9.63672H22.9141C20.599 9.63672 19.3047 10.5208 19.0312 12.2891C18.9948 12.5625 18.9766 12.8451 18.9766 13.1367V23.4727C18.9766 25.4779 19.8971 26.6263 21.7383 26.918C22.1029 26.9727 22.4948 27 22.9141 27H28.8203V24.4844ZM39.5117 24.2109L43.2578 9.63672H40.6328L36.9688 24.2656C36.8958 24.4479 36.7956 24.5482 36.668 24.5664H35.5469L32.1289 9.63672H29.3672L33.3867 27L36.3672 27.0547C37.4974 27.0729 38.2539 26.8542 38.6367 26.3984C38.9466 26.0156 39.2383 25.2865 39.5117 24.2109Z" fill="url(#paint1_linear)"/>
</g>
<defs>
<filter id="filter0_d" x="2.72656" y="8.63672" width="64.4102" height="25.582" filterUnits="userSpaceOnUse" color-interpolation-filters="sRGB">
<feFlood flood-opacity="0" result="BackgroundImageFix"/>
<feColorMatrix in="SourceAlpha" type="matrix" values="0 0 0 0 0 0 0 0 0 0 0 0 0 0 0 0 0 0 127 0"/>
<feOffset dy="3"/>
<feGaussianBlur stdDeviation="2"/>
<feColorMatrix type="matrix" values="0 0 0 0 0 0 0 0 0 0 0 0 0 0 0 0 0 0 0.17 0"/>
<feBlend mode="normal" in2="BackgroundImageFix" result="effect1_dropShadow"/>
<feBlend mode="normal" in="SourceGraphic" in2="effect1_dropShadow" result="shape"/>
</filter>
<linearGradient id="paint0_linear" x1="19" y1="-0.999999" x2="85" y2="48" gradientUnits="userSpaceOnUse">
<stop offset="0.0622631" stop-color="#122AFF"/>
<stop offset="1" stop-color="#138FF9"/>
</linearGradient>
<linearGradient id="paint1_linear" x1="42.5" y1="4" x2="42.5" y2="37" gradientUnits="userSpaceOnUse">
<stop stop-color="#0085F8"/>
<stop offset="1" stop-color="#138FF9"/>
</linearGradient>
</defs>
</svg>
