<svg width="74" height="57" viewBox="0 0 74 57" fill="none" xmlns="http://www.w3.org/2000/svg">
<path d="M67.0625 0H6.9375C3.10598 0 0 3.18992 0 7.125V49.875C0 53.8101 3.10598 57 6.9375 57H67.0625C70.894 57 74 53.8101 74 49.875V7.125C74 3.18992 70.894 0 67.0625 0ZM67.0625 7.125C63.8218 9.83532 58.6554 20.1068 47.6105 28.9891C45.1764 30.9555 40.3549 35.6795 37 35.6244C33.6457 35.6801 28.8226 30.9547 26.3895 28.9891C15.3463 20.1081 10.1786 9.83577 6.9375 7.125H67.0625ZM6.9375 49.875V18.9258C10.2493 21.6349 14.9458 28.8355 22.1043 34.5925C25.2633 37.1463 30.7956 42.7841 37 42.7499C43.1739 42.7841 48.6361 37.2281 51.8944 34.5937C59.0527 28.8368 63.7506 21.6351 67.0625 18.9258V49.875H6.9375Z" fill="#4B657F"/>
</svg>
