<svg width="68" height="68" viewBox="0 0 68 68" fill="none" xmlns="http://www.w3.org/2000/svg">
<path d="M57.8152 9.88125C51.4554 3.50625 42.9857 0 33.9848 0C15.4062 0 0.288393 15.1179 0.288393 33.6964C0.288393 39.6313 1.83661 45.4295 4.78125 50.5446L0 68L17.8652 63.3098C22.783 65.9964 28.3232 67.408 33.9696 67.408H33.9848C52.5482 67.408 68 52.2902 68 33.7116C68 24.7107 64.175 16.2562 57.8152 9.88125V9.88125ZM33.9848 61.7313C28.9455 61.7313 24.0125 60.3804 19.717 57.8304L18.7 57.2232L8.10536 60.0009L10.9286 49.6643L10.2607 48.6018C7.45268 44.1393 5.98036 38.9938 5.98036 33.6964C5.98036 18.2598 18.5482 5.69196 34 5.69196C41.483 5.69196 48.5107 8.60625 53.7929 13.9036C59.075 19.2009 62.3232 26.2286 62.308 33.7116C62.308 49.1634 49.4214 61.7313 33.9848 61.7313V61.7313ZM49.3455 40.7545C48.5107 40.3295 44.367 38.2955 43.5929 38.0223C42.8188 37.7339 42.2571 37.5973 41.6955 38.4473C41.1339 39.2973 39.525 41.1795 39.0241 41.7563C38.5384 42.3179 38.0375 42.3938 37.2027 41.9688C32.2545 39.4946 29.0063 37.5518 25.7429 31.9509C24.8777 30.4634 26.608 30.5696 28.217 27.3518C28.4902 26.7902 28.3536 26.3045 28.1411 25.8795C27.9286 25.4545 26.2438 21.3107 25.5455 19.6259C24.8625 17.9866 24.1643 18.2143 23.6482 18.1839C23.1625 18.1536 22.6009 18.1536 22.0393 18.1536C21.4777 18.1536 20.567 18.3661 19.7929 19.2009C19.0187 20.0509 16.8482 22.0848 16.8482 26.2286C16.8482 30.3723 19.8688 34.3795 20.2786 34.9411C20.7036 35.5027 26.2134 44.0027 34.6679 47.6607C40.0107 49.9679 42.1054 50.1652 44.7768 49.7705C46.4009 49.5277 49.7554 47.7366 50.4536 45.7634C51.1518 43.7902 51.1518 42.1054 50.9393 41.7563C50.742 41.3768 50.1804 41.1643 49.3455 40.7545Z" fill="#4B657F"/>
</svg>
